<svg xmlns="http://www.w3.org/2000/svg" width="256" height="256" viewBox="0 0 100 100"><rect width="100" height="100" rx="20" fill="#508cc5"></rect><path d="M81.68 16.38L81.86 16.74Q79.70 18.63 77.14 20.34Q74.57 22.05 71.78 23.31Q68.99 24.57 66.02 25.34Q63.05 26.10 60.08 26.10L60.08 26.10Q59.09 26.10 58.19 26.10Q57.29 26.10 56.39 26.01L56.39 26.01Q56.12 28.71 56.12 31.50L56.12 31.50Q56.12 39.15 56.21 46.89Q56.30 54.63 56.30 63.36L56.30 63.36Q56.30 68.04 57.97 72.41Q59.63 76.77 62.78 78.75L62.78 78.75Q59 80.55 56.44 82.58Q53.87 84.60 51.89 88.38L51.89 88.38Q50.36 84.69 47.12 82.49Q43.88 80.28 39.83 78.75L39.83 78.75Q41.63 76.14 42.53 71.96Q43.43 67.77 43.43 63.81L43.43 63.81Q43.43 59.94 43.43 56.93Q43.43 53.91 43.47 51.30Q43.52 48.69 43.56 46.26Q43.61 43.83 43.66 41.04Q43.70 38.25 43.70 34.92Q43.70 31.59 43.70 27.09L43.70 27.09Q43.70 26.37 43.70 25.74Q43.70 25.11 43.52 24.39L43.52 24.39Q37.58 23.31 32.23 22.19Q26.87 21.06 22.46 21.06L22.46 21.06Q20.48 21.06 18.23 21.51L18.23 21.51L18.14 21.24Q23 19.80 26.11 17.73Q29.21 15.66 32.36 12.78L32.36 12.78Q37.04 14.13 40.33 14.94Q43.61 15.75 46.45 16.20Q49.28 16.65 52.02 16.79Q54.77 16.92 58.28 16.92L58.28 16.92Q57.38 15.39 57.02 14.18Q56.66 12.96 56.57 11.61L56.57 11.61Q59.54 13.50 62.11 14.54Q64.67 15.57 67.01 16.07Q69.35 16.56 71.69 16.65Q74.03 16.74 76.55 16.74L76.55 16.74Q77.99 16.74 79.20 16.65Q80.42 16.56 81.68 16.38L81.68 16.38Z" fill="#fff"></path></svg>